<?xml version="1.0" encoding="UTF-8" standalone="no"?>
<!-- Created with Inkscape (http://www.inkscape.org/) -->

<svg
   xmlns:dc="http://purl.org/dc/elements/1.1/"
   xmlns:cc="http://creativecommons.org/ns#"
   xmlns:rdf="http://www.w3.org/1999/02/22-rdf-syntax-ns#"
   xmlns:svg="http://www.w3.org/2000/svg"
   xmlns="http://www.w3.org/2000/svg"
   xmlns:xlink="http://www.w3.org/1999/xlink"
   version="1.1"
   width="297mm"
   height="210mm"
   id="svg2985">
  <defs
     id="defs2987">
    <linearGradient
       id="linearGradient3970">
      <stop
         id="stop3972"
         style="stop-color:#ff0000;stop-opacity:1"
         offset="0" />
    </linearGradient>
    <linearGradient
       id="linearGradient3964">
      <stop
         id="stop3966"
         style="stop-color:#000000;stop-opacity:1"
         offset="0" />
    </linearGradient>
    <linearGradient
       id="linearGradient3958">
      <stop
         id="stop3960"
         style="stop-color:#ff0000;stop-opacity:1"
         offset="0" />
    </linearGradient>
    <linearGradient
       id="linearGradient3766">
      <stop
         id="stop3768"
         style="stop-color:#ff0066;stop-opacity:1"
         offset="0" />
    </linearGradient>
    <linearGradient
       x1="109.73705"
       y1="422.78314"
       x2="304.85822"
       y2="422.78314"
       id="linearGradient3770"
       xlink:href="#linearGradient3766"
       gradientUnits="userSpaceOnUse" />
    <linearGradient
       x1="109.73705"
       y1="422.78314"
       x2="304.85822"
       y2="422.78314"
       id="linearGradient3770-1"
       xlink:href="#linearGradient3766-7"
       gradientUnits="userSpaceOnUse" />
    <linearGradient
       id="linearGradient3766-7">
      <stop
         id="stop3768-4"
         style="stop-color:#ff0066;stop-opacity:1"
         offset="0" />
    </linearGradient>
    <linearGradient
       x1="109.73705"
       y1="422.78314"
       x2="304.85822"
       y2="422.78314"
       id="linearGradient3770-9"
       xlink:href="#linearGradient3766-4"
       gradientUnits="userSpaceOnUse" />
    <linearGradient
       id="linearGradient3766-4">
      <stop
         id="stop3768-8"
         style="stop-color:#ff0066;stop-opacity:1"
         offset="0" />
    </linearGradient>
    <linearGradient
       x1="109.73705"
       y1="422.78314"
       x2="304.85822"
       y2="422.78314"
       id="linearGradient3770-4"
       xlink:href="#linearGradient3766-5"
       gradientUnits="userSpaceOnUse" />
    <linearGradient
       id="linearGradient3766-5">
      <stop
         id="stop3768-5"
         style="stop-color:#ff0066;stop-opacity:1"
         offset="0" />
    </linearGradient>
    <linearGradient
       x1="109.73705"
       y1="422.78314"
       x2="304.85822"
       y2="422.78314"
       id="linearGradient3770-11"
       xlink:href="#linearGradient3766-52"
       gradientUnits="userSpaceOnUse" />
    <linearGradient
       id="linearGradient3766-52">
      <stop
         id="stop3768-7"
         style="stop-color:#ff0066;stop-opacity:1"
         offset="0" />
    </linearGradient>
    <linearGradient
       x1="109.73705"
       y1="422.78314"
       x2="304.85822"
       y2="422.78314"
       id="linearGradient3770-42"
       xlink:href="#linearGradient3766-3"
       gradientUnits="userSpaceOnUse" />
    <linearGradient
       id="linearGradient3766-3">
      <stop
         id="stop3768-2"
         style="stop-color:#ff0066;stop-opacity:1"
         offset="0" />
    </linearGradient>
    <linearGradient
       x1="109.73705"
       y1="422.78314"
       x2="304.85822"
       y2="422.78314"
       id="linearGradient3770-8"
       xlink:href="#linearGradient3766-57"
       gradientUnits="userSpaceOnUse" />
    <linearGradient
       id="linearGradient3766-57">
      <stop
         id="stop3768-6"
         style="stop-color:#ff0066;stop-opacity:1"
         offset="0" />
    </linearGradient>
    <linearGradient
       x1="443.48001"
       y1="399.3902"
       x2="465.31219"
       y2="399.3902"
       id="linearGradient3968"
       xlink:href="#linearGradient3964"
       gradientUnits="userSpaceOnUse" />
  </defs>
  <metadata
     id="metadata2991">
    <rdf:RDF>
      <cc:Work
         rdf:about="">
        <dc:format>image/svg+xml</dc:format>
        <dc:type
           rdf:resource="http://purl.org/dc/dcmitype/StillImage" />
        <dc:title></dc:title>
      </cc:Work>
    </rdf:RDF>
  </metadata>
  <g
     id="layer1">
    <path
       d="m 301.73322,422.78314 a 94.435585,100.19386 0 1 1 -188.87117,0 94.435585,100.19386 0 1 1 188.87117,0 z"
       transform="matrix(0.70554663,0,0,0.66499801,-9.2791786,70.230678)"
       id="path2996"
       style="fill:url(#linearGradient3770);fill-opacity:1;stroke:#000000;stroke-width:5.17291975;stroke-linecap:square;stroke-linejoin:round;stroke-miterlimit:4;stroke-opacity:0.978836;stroke-dasharray:none" />
    <path
       d="m 301.73322,422.78314 a 94.435585,100.19386 0 1 1 -188.87117,0 94.435585,100.19386 0 1 1 188.87117,0 z"
       transform="matrix(0.70554663,0,0,0.66499801,237.11268,-131.30868)"
       id="path2996-0"
       style="fill:#00ff00;fill-opacity:1;stroke:#000000;stroke-width:5.17291975;stroke-linecap:square;stroke-linejoin:round;stroke-miterlimit:4;stroke-opacity:0.978836;stroke-dasharray:none" />
    <path
       d="m 301.73322,422.78314 a 94.435585,100.19386 0 1 1 -188.87117,0 94.435585,100.19386 0 1 1 188.87117,0 z"
       transform="matrix(0.70554663,0,0,0.66499801,114.91344,363.60304)"
       id="path2996-2"
       style="fill:#00ff00;fill-opacity:1;stroke:#000000;stroke-width:5.17291975;stroke-linecap:square;stroke-linejoin:round;stroke-miterlimit:4;stroke-opacity:0.978836;stroke-dasharray:none" />
    <path
       d="m 301.73322,422.78314 a 94.435585,100.19386 0 1 1 -188.87117,0 94.435585,100.19386 0 1 1 188.87117,0 z"
       transform="matrix(0.70554663,0,0,0.66499801,395.54979,129.12871)"
       id="path2996-7"
       style="fill:#00ff00;fill-opacity:1;stroke:#000000;stroke-width:5.17291975;stroke-linecap:square;stroke-linejoin:round;stroke-miterlimit:4;stroke-opacity:0.978836;stroke-dasharray:none" />
    <path
       d="m 301.73322,422.78314 a 94.435585,100.19386 0 1 1 -188.87117,0 94.435585,100.19386 0 1 1 188.87117,0 z"
       transform="matrix(0.70554663,0,0,0.66499801,761.85987,-187.7058)"
       id="path2996-1"
       style="fill:#ffff00;fill-opacity:1;stroke:#000000;stroke-width:5.17291975;stroke-linecap:square;stroke-linejoin:round;stroke-miterlimit:4;stroke-opacity:0.978836;stroke-dasharray:none" />
    <path
       d="m 301.73322,422.78314 a 94.435585,100.19386 0 1 1 -188.87117,0 94.435585,100.19386 0 1 1 188.87117,0 z"
       transform="matrix(0.70554663,0,0,0.66499801,410.75861,352.15431)"
       id="path2996-16"
       style="fill:#ffff00;fill-opacity:1;stroke:#000000;stroke-width:5.17291975;stroke-linecap:square;stroke-linejoin:round;stroke-miterlimit:4;stroke-opacity:0.978836;stroke-dasharray:none" />
    <path
       d="m 301.73322,422.78314 a 94.435585,100.19386 0 1 1 -188.87117,0 94.435585,100.19386 0 1 1 188.87117,0 z"
       transform="matrix(0.70554663,0,0,0.66499801,484.60003,-131.26896)"
       id="path2996-9"
       style="fill:#ffff00;fill-opacity:1;stroke:#000000;stroke-width:5.17291975;stroke-linecap:square;stroke-linejoin:round;stroke-miterlimit:4;stroke-opacity:0.978836;stroke-dasharray:none" />
    <path
       d="m 301.73322,422.78314 a 94.435585,100.19386 0 1 1 -188.87117,0 94.435585,100.19386 0 1 1 188.87117,0 z"
       transform="matrix(0.70554663,0,0,0.66499801,775.577,348.93664)"
       id="path2996-9-2"
       style="fill:#ffff00;fill-opacity:1;stroke:#000000;stroke-width:5.17291975;stroke-linecap:square;stroke-linejoin:round;stroke-miterlimit:4;stroke-opacity:0.978836;stroke-dasharray:none" />
    <path
       d="m 301.73322,422.78314 a 94.435585,100.19386 0 1 1 -188.87117,0 94.435585,100.19386 0 1 1 188.87117,0 z"
       transform="matrix(0.70554663,0,0,0.66499801,648.53965,140.4651)"
       id="path2996-9-7"
       style="fill:#ffff00;fill-opacity:1;stroke:#000000;stroke-width:5.17291975;stroke-linecap:square;stroke-linejoin:round;stroke-miterlimit:4;stroke-opacity:0.978836;stroke-dasharray:none" />
    <path
       d="m 154.31781,416.72899 56.59677,128.25887"
       id="path3940"
       style="fill:none;stroke:#000000;stroke-width:3.54330707;stroke-linecap:butt;stroke-linejoin:miter;stroke-miterlimit:4;stroke-opacity:1;stroke-dasharray:none" />
    <path
       d="m 202.5513,364.79331 248.75715,36.85291"
       id="path3942"
       style="fill:none;stroke:#000000;stroke-width:3.54330707;stroke-linecap:butt;stroke-linejoin:miter;stroke-miterlimit:4;stroke-opacity:1;stroke-dasharray:none" />
    <path
       d="M 186.07715,304.75697 331.03003,190.74909"
       id="path3944"
       style="fill:none;stroke:#000000;stroke-width:3.54330707;stroke-linecap:butt;stroke-linejoin:miter;stroke-miterlimit:4;stroke-opacity:1;stroke-dasharray:none" />
    <path
       d="m 216.81856,556.1851 -15.0049,-10.47396 16.57316,-7.75765 z"
       id="path3950"
       style="fill:#000000;fill-opacity:1;stroke:#000000;stroke-width:3.54330707;stroke-linecap:square;stroke-linejoin:round;stroke-miterlimit:4;stroke-opacity:0.978836;stroke-dasharray:none" />
    <path
       d="m 463.54053,401.3336 -18.28886,7.96787 2.24406,-19.82256 z"
       transform="translate(3.3110039,2.087372)"
       id="path3954"
       style="fill:url(#linearGradient3968);fill-opacity:1;stroke:#000000;stroke-width:3.54330707;stroke-linecap:square;stroke-linejoin:round;stroke-miterlimit:4;stroke-opacity:0.978836;stroke-dasharray:none" />
    <path
       d="M 340.59854,179.04292 328.32566,207.50514 309.81308,182.6454 z"
       transform="translate(8.5505911,-3.1555753)"
       id="path3956"
       style="fill:#000000;fill-opacity:1;stroke:#000000;stroke-width:3.54330707;stroke-linecap:square;stroke-linejoin:round;stroke-miterlimit:4;stroke-opacity:0.978836;stroke-dasharray:none" />
  </g>
</svg>
